# xmcd
#
# Track frame offsets:
#	182
#	14232
#	25897
#	35267
#	49340
#	62247
#	71202
#	92950
#	104010
#	115872
#	128442
#	143645
#	160297
#	171965
#
# Disc length: 2493 seconds
#
# Revision: 0
# Processed by: cddbd v1.5PL3 Copyright (c) Steve Scherf et al.
# Submitted via: audiograbber 1.83.01
#
DISCID=cc09bb0e
DTITLE=MHS - Marathon
DYEAR=1994
DGENRE=Bluegrass
TTITLE0=Prvni seskok (Get In The Wind)
TTITLE1=Bud neverna
TTITLE2=Penzion (My Windows Faces To South)
TTITLE3=E 12
TTITLE4=Az ti vyznani napisu kridou
TTITLE5=Zivot a cas (I'm down)
TTITLE6=Nikita
TTITLE7=Country boy
TTITLE8=Harem (Old Dog)
TTITLE9=Tanecni (One Way Track)
TTITLE10=Mammas Don't Let Your Babies Grow Up To Be Cowboys
TTITLE11=Pritel (Give Us A Happy Home)
TTITLE12=Sef (I'm Here To Love You)
TTITLE13=Marathon
EXTD=
EXTT0=
EXTT1=
EXTT2=
EXTT3=
EXTT4=
EXTT5=
EXTT6=
EXTT7=
EXTT8=
EXTT9=
EXTT10=
EXTT11=
EXTT12=
EXTT13=
PLAYORDER=
